<?xml version="1.0" standalone="no"?>
<!DOCTYPE svg PUBLIC "-//W3C//DTD SVG 20010904//EN"
 "http://www.w3.org/TR/2001/REC-SVG-20010904/DTD/svg10.dtd">
<svg version="1.0" xmlns="http://www.w3.org/2000/svg"
 width="800.000000pt" height="800.000000pt" viewBox="0 0 800.000000 800.000000"
 preserveAspectRatio="xMidYMid meet">
<metadata>
Created by potrace 1.14, written by Peter Selinger 2001-2017
</metadata>
<g transform="translate(0.000000,800.000000) scale(0.100000,-0.100000)"
fill="#000000" stroke="none">
<path d="M2257 6384 c-424 -77 -716 -492 -643 -912 32 -186 108 -325 246 -455
91 -86 215 -155 337 -189 74 -21 103 -22 541 -26 l462 -3 0 -1234 c0 -1022 2
-1246 14 -1307 32 -163 109 -309 222 -422 440 -436 1167 -238 1340 364 18 62
19 147 22 2133 l2 2067 -1232 -1 c-1014 -1 -1247 -3 -1311 -15z"/>
</g>
</svg>
