<?xml version="1.0" standalone="no"?>
<!DOCTYPE svg PUBLIC "-//W3C//DTD SVG 20010904//EN"
 "http://www.w3.org/TR/2001/REC-SVG-20010904/DTD/svg10.dtd">
<svg version="1.0" xmlns="http://www.w3.org/2000/svg"
 width="800.000000pt" height="800.000000pt" viewBox="0 0 800.000000 800.000000"
 preserveAspectRatio="xMidYMid meet">
<metadata>
Created by potrace 1.14, written by Peter Selinger 2001-2017
</metadata>
<g transform="translate(0.000000,800.000000) scale(0.100000,-0.100000)"
fill="#000000" stroke="none">
<path d="M3770 6985 c-223 -46 -435 -200 -511 -370 -46 -106 -36 -252 27 -361
35 -60 141 -157 210 -192 l61 -31 35 61 35 61 -87 86 c-91 90 -120 137 -128
207 -12 110 120 265 305 358 156 78 371 73 542 -13 33 -17 71 -31 83 -31 28 0
148 55 148 68 0 13 -180 95 -265 121 -159 49 -325 62 -455 36z"/>
<path d="M4616 6810 c-144 -23 -303 -82 -402 -151 -57 -39 -124 -98 -124 -109
0 -12 112 -80 131 -80 10 0 69 27 132 60 160 83 303 130 399 130 117 0 197
-33 295 -122 24 -21 48 -38 54 -38 28 0 179 45 179 53 0 6 -33 42 -72 81 -82
79 -177 135 -276 161 -78 20 -236 27 -316 15z"/>
<path d="M3160 6785 c-216 -53 -408 -225 -553 -495 -25 -47 -71 -138 -101
-202 l-55 -118 74 0 c91 0 115 17 175 126 74 135 203 317 280 395 76 76 133
111 204 125 34 6 44 15 92 89 30 46 54 86 54 89 0 11 -114 5 -170 -9z"/>
<path d="M3594 6681 c-43 -31 -80 -69 -73 -75 2 -2 83 -47 179 -99 96 -52 225
-122 285 -156 195 -109 364 -148 597 -138 175 7 178 9 178 130 0 50 -6 115
-14 142 -16 63 -52 145 -63 145 -4 0 -43 -12 -85 -26 l-77 -25 15 -42 c28 -78
35 -126 23 -149 -10 -19 -17 -20 -93 -16 -110 8 -248 55 -394 136 -125 70
-404 202 -426 202 -7 0 -31 -13 -52 -29z"/>
<path d="M5205 6496 c-125 -30 -242 -124 -293 -234 -34 -75 -42 -215 -17 -311
23 -91 75 -189 134 -253 51 -56 151 -118 190 -118 43 0 87 34 124 97 5 7 -13
23 -46 42 -158 90 -247 236 -234 383 12 137 115 220 292 235 124 10 291 -36
401 -111 97 -66 203 -195 249 -306 26 -63 30 -67 91 -89 89 -34 104 -36 104
-15 0 48 -88 235 -156 330 -53 75 -173 188 -247 233 -173 103 -436 155 -592
117z"/>
<path d="M2507 6420 c-343 -64 -558 -203 -673 -435 -95 -192 -100 -442 -12
-608 75 -141 246 -263 404 -288 83 -13 184 -5 184 16 0 12 -56 144 -65 153 -1
2 -34 7 -71 13 -87 12 -181 57 -229 110 -101 112 -128 301 -69 477 72 212 252
365 489 413 98 20 109 28 151 110 33 67 36 66 -109 39z"/>
<path d="M2888 6338 c-16 -17 -36 -45 -45 -62 l-16 -30 73 -66 73 -66 -39 -33
c-51 -42 -162 -95 -243 -116 -35 -9 -168 -29 -295 -45 -329 -41 -371 -53 -401
-110 -14 -28 -22 -130 -9 -130 3 0 36 9 72 20 41 12 142 25 257 35 294 24 418
47 562 105 152 61 323 198 323 259 0 34 -64 124 -136 192 -96 90 -128 99 -176
47z"/>
<path d="M3799 6300 c-135 -150 -243 -328 -288 -474 -34 -110 -33 -113 47
-120 37 -4 81 -8 99 -10 31 -4 31 -4 63 87 47 137 132 292 222 407 43 56 78
103 76 105 -16 12 -137 75 -146 75 -6 0 -39 -31 -73 -70z"/>
<path d="M5299 6293 c-14 -3 -7 -25 41 -131 31 -70 85 -203 120 -297 100 -271
169 -394 285 -510 75 -76 175 -145 219 -152 29 -5 37 0 85 52 57 63 107 152
127 228 11 42 10 48 -5 56 -22 12 -124 51 -133 51 -3 0 -28 -39 -54 -87 -26
-49 -49 -90 -51 -93 -7 -8 -90 86 -145 165 -66 93 -92 146 -181 370 -111 279
-132 322 -166 340 -28 14 -104 18 -142 8z"/>
<path d="M3888 6038 c-14 -12 -81 -129 -75 -133 1 -1 65 -21 142 -45 259 -78
335 -110 387 -161 31 -31 51 -61 59 -90 7 -28 14 -170 18 -381 l6 -338 66 63
c102 97 100 91 107 377 5 270 0 313 -49 411 -32 65 -101 138 -165 175 -64 38
-166 70 -330 104 -170 35 -147 33 -166 18z"/>
<path d="M5705 5818 c11 -50 43 -106 70 -124 14 -9 80 -27 146 -40 132 -27
195 -50 278 -101 121 -77 210 -211 231 -347 6 -38 15 -76 20 -86 9 -16 98 -68
154 -90 l29 -11 -6 103 c-14 247 -120 425 -340 572 -162 108 -314 156 -492
156 l-97 0 7 -32z"/>
<path d="M1641 5675 c-84 -80 -139 -156 -186 -259 -48 -105 -66 -187 -72 -329
-7 -148 5 -240 48 -372 30 -94 96 -226 115 -232 6 -2 32 16 57 40 58 53 59 73
17 213 -62 203 -74 346 -41 476 25 95 52 153 112 235 l48 66 -6 66 c-3 36 -8
88 -12 116 l-6 49 -74 -69z"/>
<path d="M5378 5642 c-136 -159 -197 -170 -423 -80 -158 64 -199 76 -270 80
l-50 3 3 -55 c2 -30 8 -72 13 -92 11 -41 7 -40 254 -124 213 -73 314 -77 441
-14 67 33 194 156 193 187 0 10 -19 55 -42 101 l-43 83 -76 -89z"/>
<path d="M2473 5711 c-29 -4 -59 -13 -67 -21 -19 -19 -36 -124 -36 -220 0
-147 51 -295 141 -415 58 -77 79 -80 192 -30 l57 25 -43 42 c-128 129 -183
302 -157 495 6 49 14 98 17 111 6 25 -1 25 -104 13z"/>
<path d="M3367 5654 c-116 -25 -231 -72 -499 -205 l-258 -128 48 -75 c26 -42
54 -76 62 -76 8 0 67 30 130 66 174 100 262 142 373 179 216 72 375 67 539
-15 l56 -29 72 75 71 75 -25 20 c-47 37 -191 98 -268 114 -95 18 -211 18 -301
-1z"/>
<path d="M4223 5615 c-204 -65 -391 -247 -454 -445 -33 -100 -37 -261 -10
-375 29 -124 114 -294 186 -371 l55 -59 61 65 c69 73 146 219 174 330 25 100
30 270 11 359 -15 73 -59 177 -90 216 -15 19 -17 19 -65 -35 -59 -65 -62 -84
-23 -166 25 -55 27 -68 27 -189 -1 -110 -4 -139 -23 -186 -23 -58 -63 -106
-81 -95 -20 13 -71 114 -86 171 -21 81 -19 150 6 231 65 212 203 346 399 390
l69 16 -6 47 c-3 25 -12 61 -19 79 -12 28 -17 32 -51 31 -21 -1 -57 -7 -80
-14z"/>
<path d="M5498 5417 c-62 -57 -71 -70 -103 -155 -39 -105 -72 -157 -142 -223
-62 -60 -107 -90 -335 -224 -103 -60 -188 -112 -188 -115 0 -3 31 -23 68 -45
100 -58 108 -57 297 60 88 54 192 120 231 146 199 133 321 379 274 549 -21 76
-28 76 -102 7z"/>
<path d="M3456 5409 c-2 -8 -9 -102 -15 -209 -12 -208 -32 -325 -75 -430 -14
-35 -26 -65 -26 -66 0 -2 28 -35 61 -75 l61 -71 20 29 c64 94 110 221 133 368
13 84 39 444 33 450 -2 2 -45 6 -95 10 -75 6 -93 5 -97 -6z"/>
<path d="M1633 5100 c-28 -11 -37 -46 -29 -108 13 -87 5 -82 122 -82 l104 0
-6 -27 c-36 -156 -95 -265 -221 -409 -138 -158 -301 -358 -313 -386 -10 -21
-7 -34 19 -86 17 -33 34 -63 39 -65 4 -3 41 36 82 86 41 50 129 147 195 217
218 229 328 425 380 679 28 132 10 162 -105 180 -78 13 -236 13 -267 1z"/>
<path d="M6060 5100 c-66 -16 -72 -51 -40 -211 27 -129 70 -247 126 -343 l46
-78 25 24 c34 32 63 91 63 129 0 17 -13 57 -29 88 -29 55 -51 137 -51 187 l0
26 98 -4 c86 -3 105 -7 166 -37 82 -40 194 -146 244 -233 77 -131 110 -287 91
-431 -6 -49 -8 -105 -4 -125 8 -42 50 -124 75 -147 16 -14 19 -10 38 57 48
163 53 350 12 498 -46 168 -176 369 -305 473 -71 57 -157 101 -240 122 -64 16
-254 19 -315 5z"/>
<path d="M2918 5050 c-155 -32 -258 -73 -372 -147 -114 -74 -246 -216 -246
-265 0 -39 123 -145 235 -201 130 -65 306 -93 479 -77 102 10 216 37 216 50 0
11 -75 106 -92 117 -7 4 -87 8 -178 9 -195 1 -270 13 -367 61 -68 33 -72 37
-61 57 22 41 134 141 195 174 169 89 411 95 573 12 23 -12 43 -20 45 -18 8 9
35 120 35 145 0 42 -25 60 -115 83 -98 25 -228 25 -347 0z"/>
<path d="M4724 5042 c-198 -69 -318 -200 -478 -522 -99 -199 -186 -344 -218
-361 -10 -5 -28 -7 -38 -4 -23 7 -104 141 -258 423 l-106 194 -28 -56 c-55
-108 -54 -197 1 -274 11 -17 32 -62 45 -100 45 -134 145 -282 269 -399 73 -70
90 -69 180 5 94 76 144 146 229 321 38 80 94 196 124 256 64 133 137 225 230
288 81 55 152 82 268 100 67 11 101 23 161 58 75 42 75 43 51 56 -48 25 -152
43 -251 43 -84 0 -113 -5 -181 -28z"/>
<path d="M5387 4857 c-31 -29 -57 -55 -57 -59 0 -3 31 -29 69 -57 96 -72 101
-88 39 -125 -106 -60 -303 -96 -427 -76 -131 21 -227 70 -361 186 -14 12 -23
4 -69 -58 l-53 -71 38 -33 c100 -87 224 -152 342 -181 100 -24 312 -21 417 6
180 47 383 185 385 261 0 23 -95 144 -148 188 -40 33 -103 73 -114 72 -2 -1
-29 -24 -61 -53z"/>
<path d="M1263 4812 c-103 -137 -180 -308 -203 -452 -35 -224 35 -477 169
-611 88 -87 168 -122 291 -127 105 -5 174 9 189 37 6 10 13 56 17 101 l7 83
-24 -7 c-66 -19 -186 -35 -223 -30 -103 16 -168 71 -222 189 -42 92 -64 194
-64 297 0 131 24 204 136 407 27 50 33 71 29 95 -11 54 -26 96 -35 96 -5 0
-35 -35 -67 -78z"/>
<path d="M6402 4803 c-15 -78 -76 -211 -149 -329 -28 -44 -62 -102 -75 -130
-39 -77 -91 -242 -84 -268 6 -25 135 -138 148 -130 5 3 8 15 8 27 0 47 53 215
95 304 24 52 68 128 98 171 64 91 123 204 132 254 5 26 2 45 -10 66 -18 29
-117 102 -139 102 -6 0 -17 -30 -24 -67z"/>
<path d="M2843 4838 c-35 -11 -63 -24 -63 -29 0 -7 103 -73 259 -165 134 -79
228 -196 281 -350 31 -88 60 -257 60 -342 -1 -131 -56 -234 -167 -308 -99 -66
-123 -92 -123 -137 0 -56 50 -143 128 -223 68 -69 240 -204 260 -204 11 0 112
160 112 177 0 5 -25 33 -56 63 -111 110 -115 137 -38 261 108 172 127 255 105
449 -38 320 -196 592 -437 753 -124 82 -202 95 -321 55z"/>
<path d="M5794 4493 c-100 -165 -145 -211 -250 -260 -54 -25 -70 -28 -174 -28
-63 0 -174 4 -246 9 -313 21 -595 -65 -859 -263 -73 -55 -225 -200 -225 -215
1 -6 27 -40 58 -75 l58 -64 151 114 c309 234 509 320 748 321 242 1 428 -91
508 -251 31 -63 34 -108 11 -157 -28 -59 -78 -80 -118 -51 -17 13 -17 15 3 48
56 91 -13 202 -115 186 -113 -19 -152 -132 -87 -249 68 -121 208 -167 337
-110 101 45 155 124 156 227 0 102 -56 270 -115 341 l-25 31 78 56 77 56 20
-26 c39 -52 214 -240 316 -339 77 -74 122 -109 174 -135 65 -32 76 -34 165
-33 74 0 111 6 165 25 69 24 70 25 73 62 3 31 -18 119 -34 148 -2 3 -28 -6
-59 -22 -115 -58 -196 -48 -328 41 -187 125 -325 320 -379 534 -28 113 -51
134 -84 79z"/>
<path d="M2151 4496 c-6 -7 -20 -49 -31 -92 -23 -88 -61 -176 -120 -274 l-39
-65 11 -108 c6 -59 14 -106 18 -105 4 2 61 68 125 148 65 80 120 145 124 145
9 0 150 -99 151 -105 0 -3 -19 -30 -41 -60 -68 -89 -93 -153 -97 -245 -3 -63
1 -92 17 -136 82 -218 376 -235 481 -28 23 45 26 118 6 157 -52 99 -158 104
-216 10 -24 -40 -25 -67 -4 -112 34 -71 -11 -89 -76 -30 -37 34 -40 40 -40 88
0 143 159 289 360 332 107 23 281 6 533 -51 18 -3 19 3 15 80 -4 109 -23 131
-125 151 -114 22 -313 27 -460 11 -157 -17 -197 -12 -294 39 -81 43 -159 115
-217 202 -43 63 -60 73 -81 48z"/>
<path d="M4516 4428 c-41 -86 -82 -207 -91 -272 l-7 -47 67 26 c88 33 127 57
168 106 36 41 57 96 57 147 0 27 -7 35 -71 71 -39 23 -75 41 -80 41 -4 0 -24
-33 -43 -72z"/>
<path d="M6425 4358 c-25 -34 -45 -70 -45 -79 0 -10 32 -55 72 -101 166 -193
229 -298 255 -424 13 -63 13 -86 3 -137 -25 -130 -106 -230 -235 -292 -92 -44
-110 -49 -127 -31 -13 12 -61 162 -97 303 -10 37 -20 47 -89 90 -42 27 -83 53
-91 58 -12 7 -13 -7 -8 -91 15 -249 142 -564 228 -564 30 0 160 50 253 98 103
53 201 138 257 225 140 215 104 469 -105 752 -69 93 -208 255 -218 255 -4 0
-28 -28 -53 -62z"/>
<path d="M1750 4320 c-71 -80 -74 -98 -42 -192 78 -222 73 -484 -16 -748 -27
-79 -31 -85 -58 -88 -43 -4 -185 68 -239 123 -31 30 -60 76 -89 139 -35 74
-59 110 -115 167 l-70 74 -1 -79 c-1 -228 126 -428 343 -542 79 -41 199 -84
237 -84 42 0 77 35 114 113 86 177 128 372 128 587 -1 143 -11 226 -43 353
-18 71 -77 247 -83 247 -2 0 -31 -32 -66 -70z"/>
<path d="M3666 3947 c-3 -17 -8 -67 -12 -110 -6 -64 -4 -77 7 -73 24 8 252
-262 416 -491 l95 -133 56 45 c32 25 70 56 86 69 l28 24 -77 102 c-180 237
-332 402 -478 518 -110 87 -114 89 -121 49z"/>
<path d="M4508 3814 l-107 -65 80 -126 c83 -133 91 -161 65 -212 -8 -15 -82
-86 -164 -159 -206 -182 -332 -319 -332 -362 0 -17 56 -107 103 -164 l23 -28
39 63 c59 97 172 207 345 339 180 137 285 242 324 323 44 94 34 126 -63 197
-89 65 -147 130 -180 202 l-26 57 -107 -65z"/>
<path d="M3818 3492 c-53 -61 -221 -326 -269 -427 -120 -248 -130 -432 -33
-631 20 -41 40 -76 43 -78 3 -2 35 23 71 55 l64 59 -12 108 c-15 133 -4 229
39 345 34 93 54 129 167 299 l85 127 -57 70 c-75 92 -79 95 -98 73z"/>
<path d="M3792 2958 c-25 -60 -41 -111 -38 -123 4 -15 343 -521 371 -553 4 -4
103 155 110 177 8 25 -5 50 -95 186 -82 123 -288 409 -298 412 -4 2 -26 -43
-50 -99z"/>
<path d="M4405 2904 c-41 -37 -78 -78 -81 -91 -4 -14 -4 -53 0 -89 16 -153
-33 -281 -188 -484 l-94 -125 55 -50 c31 -27 62 -53 69 -58 16 -9 127 112 199
219 75 111 140 253 166 360 28 118 24 254 -10 332 -13 28 -27 52 -32 52 -4 0
-42 -30 -84 -66z"/>
<path d="M3660 2379 c-321 -308 -414 -393 -474 -433 -239 -159 -513 -137 -597
48 -23 51 -24 125 -2 171 17 37 33 46 33 20 0 -26 39 -94 59 -105 31 -16 93
-12 129 10 46 28 72 76 72 133 0 98 -55 147 -174 155 -92 5 -165 -21 -237 -86
-186 -167 -220 -414 -93 -672 112 -226 330 -358 592 -360 75 0 107 -13 187
-74 212 -162 539 -228 736 -150 37 15 40 19 25 28 -10 6 -48 32 -84 59 -66 48
-75 52 -221 87 -117 28 -218 76 -237 112 -28 55 0 87 191 220 94 65 219 153
280 195 l109 76 -69 63 -69 63 -80 -57 c-45 -31 -144 -102 -221 -158 -77 -55
-165 -117 -195 -136 -177 -112 -427 -150 -572 -85 -107 48 -188 145 -214 255
-19 79 -3 82 66 11 152 -155 382 -169 659 -38 57 27 110 49 118 49 8 0 27 -14
42 -31 l28 -31 66 64 c53 51 67 70 72 103 13 91 50 142 232 322 l174 172 -65
97 -65 97 -201 -194z"/>
<path d="M5190 2358 c-129 -87 -68 -298 83 -285 55 5 82 25 98 76 18 56 27 58
48 10 45 -99 18 -179 -82 -247 -166 -112 -363 -92 -558 57 -35 27 -122 103
-192 170 -70 66 -131 121 -136 121 -14 0 -121 -142 -121 -160 0 -10 15 -41 34
-68 40 -60 50 -117 36 -204 -12 -76 -27 -124 -65 -199 -37 -72 -71 -116 -183
-231 l-94 -96 44 -25 c23 -13 55 -27 70 -31 94 -22 220 116 374 410 75 142 80
145 178 90 87 -48 192 -83 291 -98 154 -22 278 16 386 119 49 46 62 54 70 43
12 -20 4 -53 -31 -126 -76 -156 -215 -225 -429 -211 -105 6 -170 29 -314 107
-61 33 -111 59 -111 57 -1 -1 -16 -33 -34 -71 -18 -37 -32 -69 -30 -70 2 -1
26 -21 54 -44 94 -76 93 -131 -4 -188 -102 -62 -283 -82 -416 -48 -125 32
-210 87 -350 226 l-129 127 -58 -42 c-32 -23 -59 -46 -59 -51 0 -19 114 -158
183 -221 172 -160 376 -254 547 -255 78 0 223 25 305 53 95 33 164 69 267 140
l87 61 118 7 c234 15 377 93 500 271 104 151 137 245 136 388 -1 196 -90 348
-252 427 -45 23 -73 29 -141 31 -76 3 -89 1 -120 -20z"/>
<path d="M3801 2140 l-64 -57 105 -104 c120 -119 244 -212 370 -275 48 -24 89
-44 91 -44 2 0 15 32 28 70 18 53 21 75 13 88 -10 15 -428 350 -464 371 -11 7
-32 -6 -79 -49z"/>
</g>
</svg>
